<svg width="137" height="116" viewBox="0 0 137 116" fill="none" xmlns="http://www.w3.org/2000/svg">
<g clip-path="url(#clip0_14792_43359)">
<rect y="8.23669" width="55.134" height="54.9652" rx="27.4826" fill="url(#paint0_linear_14792_43359)"/>
<g clip-path="url(#clip1_14792_43359)">
<path d="M26.7324 31.5552L16.7061 35.902L26.7324 41.5488L36.7548 35.902L26.7324 31.5552Z" fill="#E35760"/>
<path d="M16.7061 35.8632L26.7304 41.5488V19.8959L16.7061 35.8632Z" fill="#E35760"/>
<path d="M26.7305 19.8959V41.5488L36.7548 35.8632L26.7305 19.8959Z" fill="#E35760"/>
<path d="M16.7061 38.2177L26.7304 51.5426V43.8056L16.7061 38.2177Z" fill="#E35760"/>
<path d="M26.7305 43.8056V51.5426L36.7548 38.2177L26.7305 43.8056Z" fill="#E35760"/>
</g>
<rect x="54.7998" y="34.072" width="82.1997" height="81.9481" rx="40.9741" fill="url(#paint1_linear_14792_43359)"/>
<g clip-path="url(#clip2_14792_43359)">
<path d="M110.277 67.5758C109.815 62.8689 105.764 61.2866 100.651 60.8322L100.635 54.3041L96.6751 54.2999L96.6896 60.6555C95.6491 60.6543 94.5801 60.6743 93.5278 60.693L93.5155 54.2958L89.5568 54.2912L89.5702 60.817C88.7132 60.8337 87.8712 60.8482 87.0507 60.8473L87.046 60.8287L81.584 60.8207L81.5947 65.0641C81.5947 65.0641 84.5186 65.0109 84.4703 65.0654C86.0747 65.0676 86.5981 66.003 86.752 66.8082L86.7682 74.2448C86.9083 74.2449 87.0482 74.2545 87.187 74.2735L86.7643 74.2741L86.7863 84.6913C86.7174 85.1982 86.4221 86.0049 85.3017 86.0052C85.3525 86.0506 82.4229 86.002 82.4229 86.002L81.6471 90.7456L86.8109 90.7557C87.7701 90.7588 88.713 90.7758 89.6367 90.7835L89.6536 97.3848L93.6018 97.392L93.5883 90.8606C94.6739 90.8846 95.725 90.8945 96.7509 90.8937L96.7653 97.4008L100.725 97.405L100.712 90.8157C107.368 90.4397 112.024 88.7634 112.588 82.4914C113.045 77.4409 110.671 75.1845 106.89 74.2695C109.184 73.0992 110.614 71.0332 110.271 67.5902L110.277 67.5758ZM104.769 81.6865C104.782 86.62 96.3603 86.0457 93.6775 86.0488L93.6599 77.302C96.3439 77.3042 104.757 76.5389 104.768 81.6851L104.769 81.6865ZM102.899 69.343C102.908 73.8318 95.8857 73.2997 93.6498 73.2976L93.6344 65.3641C95.8673 65.3655 102.889 64.6609 102.898 69.339L102.899 69.343Z" fill="#E35760"/>
</g>
<g clip-path="url(#clip3_14792_43359)">
<path d="M28.6209 95.5235C27.0216 93.9318 25.8404 91.9719 25.1817 89.8169C24.5229 87.6619 24.407 85.3782 24.8441 83.168L30.2118 89.057C30.2975 89.1508 30.4013 89.2264 30.5171 89.2791C30.6329 89.3317 30.7582 89.3604 30.8854 89.3634C31.0126 89.3663 31.1391 89.3434 31.2572 89.2962C31.3753 89.2489 31.4826 89.1783 31.5725 89.0884L34.1973 86.4716C34.3736 86.2959 34.4726 86.0576 34.4726 85.8091C34.4726 85.5606 34.3736 85.3223 34.1973 85.1466L23.1108 74.094C22.9346 73.9183 22.6955 73.8196 22.4463 73.8196C22.197 73.8196 21.958 73.9183 21.7818 74.094L10.688 85.1538C10.5118 85.3295 10.4128 85.5678 10.4128 85.8163C10.4128 86.0648 10.5118 86.3031 10.688 86.4788L13.3102 89.0929C13.4002 89.1828 13.5076 89.2536 13.6259 89.3009C13.7443 89.3481 13.871 89.3709 13.9984 89.3678C14.1259 89.3647 14.2513 89.3358 14.3672 89.2828C14.4831 89.2299 14.5869 89.154 14.6724 89.0597L19.0151 84.2721C18.7868 87.0646 19.1712 89.8731 20.1414 92.5025C21.1117 95.1319 22.6446 97.5192 24.6337 99.4984C31.3404 106.185 41.737 106.952 49.2971 101.802C49.4107 101.724 49.5056 101.622 49.5753 101.504C49.645 101.385 49.6876 101.253 49.7002 101.116C49.7128 100.979 49.695 100.841 49.6481 100.712C49.6012 100.583 49.5264 100.465 49.4289 100.368L46.7126 97.66C46.5627 97.5109 46.3667 97.4166 46.1563 97.3925C45.9459 97.3683 45.7335 97.4157 45.5536 97.527C42.9155 99.1372 39.8105 99.8152 36.7388 99.4518C33.6671 99.0883 30.8076 97.7046 28.6209 95.5235Z" fill="url(#paint2_linear_14792_43359)"/>
</g>
<g clip-path="url(#clip4_14792_43359)">
<path d="M83.802 16.6018L79.4399 21.3922C79.6711 18.5964 79.2881 15.784 78.3175 13.1509C77.347 10.5178 75.8122 8.12736 73.8202 6.14603C67.1141 -0.539629 56.7175 -1.30702 49.1574 3.84276C49.0438 3.92068 48.9489 4.02256 48.8792 4.14118C48.8095 4.25979 48.7669 4.39224 48.7543 4.52911C48.7417 4.66599 48.7595 4.80396 48.8064 4.93322C48.8533 5.06247 48.9281 5.17987 49.0256 5.27706L51.7419 7.985C51.8918 8.13412 52.0878 8.2284 52.2982 8.25255C52.5086 8.2767 52.721 8.22931 52.9009 8.11805C55.1823 6.72687 57.8206 6.02776 60.4938 6.10603C63.167 6.1843 65.7595 7.03657 67.9551 8.55883C70.1507 10.0811 71.8544 12.2075 72.8583 14.6787C73.8622 17.1499 74.123 19.859 73.6087 22.4754L68.2593 16.6057C68.1736 16.5118 68.0698 16.4363 67.954 16.3836C67.8382 16.3309 67.7129 16.3023 67.5857 16.2993C67.4585 16.2964 67.332 16.3192 67.2139 16.3665C67.0958 16.4137 66.9885 16.4844 66.8986 16.5742L64.2732 19.1916C64.097 19.3673 63.9979 19.6056 63.9979 19.8541C63.9979 20.1026 64.097 20.3409 64.2732 20.5166L75.3608 31.5703C75.5371 31.746 75.7761 31.8447 76.0254 31.8447C76.2746 31.8447 76.5136 31.746 76.6899 31.5703L87.7847 20.5094C87.961 20.3337 88.06 20.0954 88.06 19.8469C88.06 19.5985 87.961 19.3601 87.7847 19.1844L85.1615 16.5693C85.0716 16.4797 84.9643 16.4092 84.8463 16.3622C84.7282 16.3151 84.6019 16.2924 84.4748 16.2955C84.3477 16.2985 84.2225 16.3272 84.1069 16.3799C83.9912 16.4325 83.8875 16.508 83.802 16.6018Z" fill="url(#paint3_linear_14792_43359)"/>
</g>
</g>
<defs>
<linearGradient id="paint0_linear_14792_43359" x1="0" y1="8.23669" x2="65.9369" y2="42.2753" gradientUnits="userSpaceOnUse">
<stop stop-color="#E35760"/>
<stop offset="1" stop-color="#E35760" stop-opacity="0"/>
</linearGradient>
<linearGradient id="paint1_linear_14792_43359" x1="54.7998" y1="34.072" x2="153.106" y2="84.8205" gradientUnits="userSpaceOnUse">
<stop stop-color="#E35760"/>
<stop offset="1" stop-color="#E35760" stop-opacity="0"/>
</linearGradient>
<linearGradient id="paint2_linear_14792_43359" x1="22.554" y1="73.1957" x2="50.0339" y2="101.595" gradientUnits="userSpaceOnUse">
<stop stop-color="#E35760"/>
<stop offset="1" stop-color="#E35760" stop-opacity="0"/>
</linearGradient>
<linearGradient id="paint3_linear_14792_43359" x1="76.0175" y1="31.5552" x2="48.5376" y2="3.15562" gradientUnits="userSpaceOnUse">
<stop stop-color="#E35760"/>
<stop offset="1" stop-color="#E35760" stop-opacity="0"/>
</linearGradient>
<clipPath id="clip0_14792_43359">
<rect width="137" height="116" fill="white"/>
</clipPath>
<clipPath id="clip1_14792_43359">
<rect width="33.4145" height="33.3122" fill="white" transform="translate(10.0234 19.8959)"/>
</clipPath>
<clipPath id="clip2_14792_43359">
<rect width="45.1096" height="44.9715" fill="white" transform="translate(73.5117 51.5426)"/>
</clipPath>
<clipPath id="clip3_14792_43359">
<rect width="40.0361" height="40.0361" fill="white" transform="matrix(0.70819 0.706022 -0.70819 0.706022 38.377 57.5499)"/>
</clipPath>
<clipPath id="clip4_14792_43359">
<rect width="40.0361" height="40.0361" fill="white" transform="matrix(0.70819 0.706022 -0.70819 0.706022 60.0967 -8.41943)"/>
</clipPath>
</defs>
</svg>
