<svg width="132" height="116" viewBox="0 0 132 116" fill="none" xmlns="http://www.w3.org/2000/svg">
<rect x="1" y="36.0325" width="91.4844" height="79.8038" rx="7" fill="url(#paint0_linear_27711_88783)"/>
<path d="M8.82031 13.6465L5.00684 26H0.957031L6.7041 10.3594H9.27148L8.82031 13.6465ZM11.9785 26L8.1543 13.6465L7.66016 10.3594H10.2598L16.0391 26H11.9785ZM11.8281 20.167V23.0781H3.80371V20.167H11.8281Z" fill="url(#paint1_linear_27711_88783)"/>
<path d="M23.2595 26H19.7898L19.8113 23.0996H23.2595C23.9757 23.0996 24.5808 22.9277 25.075 22.584C25.5763 22.2402 25.9558 21.7282 26.2136 21.0479C26.4786 20.3604 26.6111 19.5153 26.6111 18.5127V17.8359C26.6111 17.084 26.5359 16.4251 26.3855 15.8594C26.2423 15.2865 26.0274 14.8102 25.741 14.4307C25.4545 14.0439 25.0964 13.7539 24.6668 13.5605C24.2442 13.3672 23.7573 13.2705 23.2058 13.2705H19.7254V10.3594H23.2058C24.2657 10.3594 25.2361 10.542 26.117 10.9072C27.005 11.2653 27.7712 11.7809 28.4158 12.4541C29.0675 13.1201 29.5688 13.9115 29.9197 14.8281C30.2778 15.7376 30.4568 16.7474 30.4568 17.8574V18.5127C30.4568 19.6156 30.2778 20.6253 29.9197 21.542C29.5688 22.4587 29.0711 23.25 28.4265 23.916C27.782 24.582 27.0193 25.0977 26.1384 25.4629C25.2647 25.821 24.3051 26 23.2595 26ZM21.949 10.3594V26H18.1785V10.3594H21.949Z" fill="url(#paint2_linear_27711_88783)"/>
<path d="M38.4937 26H35.0239L35.0454 23.0996H38.4937C39.2098 23.0996 39.815 22.9277 40.3091 22.584C40.8104 22.2402 41.19 21.7282 41.4478 21.0479C41.7127 20.3604 41.8452 19.5153 41.8452 18.5127V17.8359C41.8452 17.084 41.77 16.4251 41.6196 15.8594C41.4764 15.2865 41.2616 14.8102 40.9751 14.4307C40.6887 14.0439 40.3306 13.7539 39.9009 13.5605C39.4784 13.3672 38.9914 13.2705 38.44 13.2705H34.9595V10.3594H38.44C39.4999 10.3594 40.4702 10.542 41.3511 10.9072C42.2391 11.2653 43.0054 11.7809 43.6499 12.4541C44.3016 13.1201 44.8029 13.9115 45.1538 14.8281C45.5119 15.7376 45.6909 16.7474 45.6909 17.8574V18.5127C45.6909 19.6156 45.5119 20.6253 45.1538 21.542C44.8029 22.4587 44.3052 23.25 43.6607 23.916C43.0161 24.582 42.2534 25.0977 41.3726 25.4629C40.4989 25.821 39.5392 26 38.4937 26ZM37.1831 10.3594V26H33.4126V10.3594H37.1831Z" fill="url(#paint3_linear_27711_88783)"/>
<path d="M48.6468 10.3594H54.802C56.0052 10.3594 57.0507 10.5384 57.9388 10.8965C58.8268 11.2546 59.5107 11.7845 59.9905 12.4863C60.4775 13.1882 60.721 14.0547 60.721 15.0859C60.721 15.9811 60.5813 16.7295 60.302 17.3311C60.0227 17.9326 59.6324 18.4303 59.1311 18.8242C58.637 19.2109 58.0605 19.5296 57.4016 19.7803L56.1663 20.4785H50.9993L50.9778 17.5674H54.802C55.2818 17.5674 55.6793 17.4814 55.9944 17.3096C56.3095 17.1377 56.5458 16.8942 56.7034 16.5791C56.8681 16.2568 56.9505 15.8737 56.9505 15.4297C56.9505 14.9785 56.8681 14.5918 56.7034 14.2695C56.5387 13.9473 56.2952 13.7002 55.9729 13.5283C55.6578 13.3564 55.2675 13.2705 54.802 13.2705H52.4173V26H48.6468V10.3594ZM57.2083 26L53.7493 19.082L57.7454 19.0605L61.2473 25.8389V26H57.2083Z" fill="url(#paint4_linear_27711_88783)"/>
<path d="M74.752 23.0996V26H66.4161V23.0996H74.752ZM67.7588 10.3594V26H63.9883V10.3594H67.7588ZM73.6778 16.5684V19.3721H66.4161V16.5684H73.6778ZM74.7842 10.3594V13.2705H66.4161V10.3594H74.7842Z" fill="url(#paint5_linear_27711_88783)"/>
<path d="M85.3455 21.8428C85.3455 21.5993 85.3097 21.3809 85.2381 21.1875C85.1665 20.987 85.034 20.8008 84.8406 20.6289C84.6473 20.457 84.368 20.2852 84.0027 20.1133C83.6447 19.9342 83.172 19.748 82.5848 19.5547C81.8973 19.3255 81.2348 19.0677 80.5975 18.7812C79.9601 18.4876 79.3908 18.1475 78.8895 17.7607C78.3881 17.3669 77.9907 16.9085 77.6971 16.3857C77.4035 15.8558 77.2566 15.2399 77.2566 14.5381C77.2566 13.8649 77.407 13.2598 77.7078 12.7227C78.0086 12.1784 78.4275 11.7165 78.9646 11.3369C79.5089 10.9502 80.1463 10.6566 80.8768 10.4561C81.6072 10.2484 82.4057 10.1445 83.2723 10.1445C84.4181 10.1445 85.4279 10.3451 86.3016 10.7461C87.1824 11.14 87.8699 11.7021 88.3641 12.4326C88.8654 13.1559 89.116 14.0117 89.116 15H85.367C85.367 14.6061 85.2846 14.2588 85.1199 13.958C84.9624 13.6572 84.7225 13.4209 84.4002 13.249C84.0779 13.0771 83.6733 12.9912 83.1863 12.9912C82.7137 12.9912 82.3162 13.0628 81.9939 13.2061C81.6717 13.3493 81.4282 13.5426 81.2635 13.7861C81.0988 14.0225 81.0164 14.2839 81.0164 14.5703C81.0164 14.8066 81.0809 15.0215 81.2098 15.2148C81.3458 15.401 81.5356 15.5765 81.7791 15.7412C82.0297 15.9059 82.3305 16.0635 82.6814 16.2139C83.0395 16.3643 83.4406 16.5111 83.8846 16.6543C84.7153 16.9193 85.4529 17.2165 86.0975 17.5459C86.7492 17.8682 87.297 18.237 87.741 18.6523C88.1922 19.0605 88.5324 19.526 88.7615 20.0488C88.9978 20.5716 89.116 21.1624 89.116 21.8213C89.116 22.5231 88.9799 23.1462 88.7078 23.6904C88.4357 24.2347 88.0454 24.6966 87.5369 25.0762C87.0285 25.4486 86.4197 25.7314 85.7107 25.9248C85.0018 26.1182 84.2104 26.2148 83.3367 26.2148C82.5346 26.2148 81.7433 26.1146 80.9627 25.9141C80.1893 25.7064 79.4874 25.3913 78.8572 24.9688C78.227 24.5391 77.7221 23.9912 77.3426 23.3252C76.9702 22.652 76.784 21.8535 76.784 20.9297H80.5652C80.5652 21.388 80.6261 21.7747 80.7478 22.0898C80.8696 22.4049 81.0486 22.6592 81.285 22.8525C81.5213 23.0387 81.8113 23.1748 82.1551 23.2607C82.4988 23.3395 82.8927 23.3789 83.3367 23.3789C83.8165 23.3789 84.2033 23.3109 84.4969 23.1748C84.7905 23.0316 85.0053 22.8454 85.1414 22.6162C85.2775 22.3799 85.3455 22.1221 85.3455 21.8428Z" fill="url(#paint6_linear_27711_88783)"/>
<path d="M100.107 21.8428C100.107 21.5993 100.071 21.3809 99.9996 21.1875C99.928 20.987 99.7955 20.8008 99.6021 20.6289C99.4088 20.457 99.1295 20.2852 98.7642 20.1133C98.4062 19.9342 97.9335 19.748 97.3463 19.5547C96.6588 19.3255 95.9963 19.0677 95.3589 18.7812C94.7216 18.4876 94.1522 18.1475 93.6509 17.7607C93.1496 17.3669 92.7522 16.9085 92.4586 16.3857C92.1649 15.8558 92.0181 15.2399 92.0181 14.5381C92.0181 13.8649 92.1685 13.2598 92.4693 12.7227C92.7701 12.1784 93.189 11.7165 93.7261 11.3369C94.2704 10.9502 94.9078 10.6566 95.6382 10.4561C96.3687 10.2484 97.1672 10.1445 98.0338 10.1445C99.1796 10.1445 100.189 10.3451 101.063 10.7461C101.944 11.14 102.631 11.7021 103.126 12.4326C103.627 13.1559 103.878 14.0117 103.878 15H100.128C100.128 14.6061 100.046 14.2588 99.8814 13.958C99.7239 13.6572 99.4839 13.4209 99.1617 13.249C98.8394 13.0771 98.4348 12.9912 97.9478 12.9912C97.4752 12.9912 97.0777 13.0628 96.7554 13.2061C96.4332 13.3493 96.1897 13.5426 96.025 13.7861C95.8603 14.0225 95.7779 14.2839 95.7779 14.5703C95.7779 14.8066 95.8423 15.0215 95.9713 15.2148C96.1073 15.401 96.2971 15.5765 96.5406 15.7412C96.7912 15.9059 97.092 16.0635 97.4429 16.2139C97.801 16.3643 98.202 16.5111 98.6461 16.6543C99.4768 16.9193 100.214 17.2165 100.859 17.5459C101.511 17.8682 102.058 18.237 102.503 18.6523C102.954 19.0605 103.294 19.526 103.523 20.0488C103.759 20.5716 103.878 21.1624 103.878 21.8213C103.878 22.5231 103.741 23.1462 103.469 23.6904C103.197 24.2347 102.807 24.6966 102.298 25.0762C101.79 25.4486 101.181 25.7314 100.472 25.9248C99.7632 26.1182 98.9719 26.2148 98.0982 26.2148C97.2961 26.2148 96.5048 26.1146 95.7242 25.9141C94.9507 25.7064 94.2489 25.3913 93.6187 24.9688C92.9885 24.5391 92.4836 23.9912 92.1041 23.3252C91.7317 22.652 91.5455 21.8535 91.5455 20.9297H95.3267C95.3267 21.388 95.3876 21.7747 95.5093 22.0898C95.6311 22.4049 95.8101 22.6592 96.0464 22.8525C96.2828 23.0387 96.5728 23.1748 96.9166 23.2607C97.2603 23.3395 97.6542 23.3789 98.0982 23.3789C98.578 23.3789 98.9647 23.3109 99.2584 23.1748C99.552 23.0316 99.7668 22.8454 99.9029 22.6162C100.039 22.3799 100.107 22.1221 100.107 21.8428Z" fill="url(#paint7_linear_27711_88783)"/>
<path d="M122.628 46.2651C122.631 49.8589 120.894 54.1964 119.204 57.3856C117.514 60.5749 115.069 63.3067 112.084 65.3395L112.691 52.6542C112.701 52.452 112.669 52.2503 112.598 52.0614C112.527 51.8726 112.419 51.7004 112.279 51.5555C112.139 51.4106 111.971 51.2959 111.785 51.2183C111.599 51.1407 111.399 51.1019 111.196 51.1043L105.293 51.166C104.897 51.1701 104.517 51.3316 104.236 51.6148C103.956 51.898 103.799 52.2798 103.799 52.6762L103.799 77.6106C103.799 78.007 103.956 78.3855 104.236 78.6629C104.517 78.9402 104.897 79.0937 105.293 79.0896L130.242 78.8288C130.639 78.8247 131.019 78.6632 131.299 78.38C131.58 78.0968 131.737 77.715 131.737 77.3186L131.737 71.4213C131.737 71.2186 131.696 71.0183 131.616 70.8328C131.537 70.6472 131.42 70.4803 131.273 70.342C131.126 70.2037 130.953 70.097 130.763 70.0285C130.573 69.9599 130.37 69.9309 130.168 69.9431L119.884 70.5675C123.291 67.6387 126.026 64.01 127.901 59.9333C129.776 55.8566 131.741 51.3983 131.737 46.9291C131.737 15.0448 108.076 2.96507 93.766 0.421911C93.5504 0.384331 93.3287 0.394743 93.1165 0.452411C92.9044 0.510086 92.7071 0.613604 92.5385 0.755617C92.37 0.897637 92.2344 1.07467 92.1413 1.27417C92.0483 1.47368 92 1.69077 92 1.91003L92 8.01909C92.0004 8.35586 92.1145 8.68145 92.3238 8.94308C92.5331 9.20471 92.8254 9.38704 93.1532 9.46051C97.9359 10.5608 99.4603 10.4626 102.322 12.1252C105.185 13.7878 122.628 24.1336 122.628 46.2651Z" fill="url(#paint8_linear_27711_88783)"/>
<rect x="1" y="46.1661" width="91.4844" height="69.67" rx="7" fill="url(#paint9_linear_27711_88783)"/>
<rect x="7.35352" y="51.233" width="80.0489" height="59.5362" rx="7" stroke="#E35760" stroke-linecap="round" stroke-dasharray="3 3"/>
<path d="M69.1172 67.7182C70.0355 66.8914 71.2274 66.4338 72.463 66.4338H92.5672C95.3286 66.4338 97.5672 68.6724 97.5672 71.4338V90.5686C97.5672 93.33 95.3286 95.5686 92.5672 95.5686H72.463C71.2274 95.5686 70.0355 95.111 69.1172 94.2842L58.4925 84.7168C56.2869 82.7307 56.2869 79.2717 58.4925 77.2856L69.1172 67.7182Z" fill="url(#paint10_linear_27711_88783)"/>
<ellipse cx="76.6025" cy="81.0012" rx="5.71778" ry="5.70027" fill="#E35760"/>
<defs>
<linearGradient id="paint0_linear_27711_88783" x1="-1.54123" y1="34.7657" x2="60.3562" y2="63.9396" gradientUnits="userSpaceOnUse">
<stop stop-color="#E35760"/>
<stop offset="1" stop-color="#2A232E"/>
</linearGradient>
<linearGradient id="paint1_linear_27711_88783" x1="111.5" y1="36" x2="107.04" y2="-4.71798" gradientUnits="userSpaceOnUse">
<stop stop-color="#E35760"/>
<stop offset="0.928738" stop-color="#302634"/>
</linearGradient>
<linearGradient id="paint2_linear_27711_88783" x1="111.5" y1="36" x2="107.04" y2="-4.71798" gradientUnits="userSpaceOnUse">
<stop stop-color="#E35760"/>
<stop offset="0.928738" stop-color="#302634"/>
</linearGradient>
<linearGradient id="paint3_linear_27711_88783" x1="111.5" y1="36" x2="107.04" y2="-4.71798" gradientUnits="userSpaceOnUse">
<stop stop-color="#E35760"/>
<stop offset="0.928738" stop-color="#302634"/>
</linearGradient>
<linearGradient id="paint4_linear_27711_88783" x1="111.5" y1="36" x2="107.04" y2="-4.71798" gradientUnits="userSpaceOnUse">
<stop stop-color="#E35760"/>
<stop offset="0.928738" stop-color="#302634"/>
</linearGradient>
<linearGradient id="paint5_linear_27711_88783" x1="111.5" y1="36" x2="107.04" y2="-4.71798" gradientUnits="userSpaceOnUse">
<stop stop-color="#E35760"/>
<stop offset="0.928738" stop-color="#302634"/>
</linearGradient>
<linearGradient id="paint6_linear_27711_88783" x1="111.5" y1="36" x2="107.04" y2="-4.71798" gradientUnits="userSpaceOnUse">
<stop stop-color="#E35760"/>
<stop offset="0.928738" stop-color="#302634"/>
</linearGradient>
<linearGradient id="paint7_linear_27711_88783" x1="111.5" y1="36" x2="107.04" y2="-4.71798" gradientUnits="userSpaceOnUse">
<stop stop-color="#E35760"/>
<stop offset="0.928738" stop-color="#302634"/>
</linearGradient>
<linearGradient id="paint8_linear_27711_88783" x1="110.862" y1="65.7464" x2="100.079" y2="10.9204" gradientUnits="userSpaceOnUse">
<stop offset="0.403573" stop-color="#E35760"/>
<stop offset="0.814289" stop-color="#E35760" stop-opacity="0"/>
</linearGradient>
<linearGradient id="paint9_linear_27711_88783" x1="1" y1="46.1661" x2="96.1241" y2="110.45" gradientUnits="userSpaceOnUse">
<stop stop-color="#E35760"/>
<stop offset="1" stop-color="#2A232E"/>
</linearGradient>
<linearGradient id="paint10_linear_27711_88783" x1="60.8004" y1="66.4338" x2="99.9681" y2="91.8719" gradientUnits="userSpaceOnUse">
<stop stop-color="#E35760"/>
<stop offset="1" stop-color="#2C232F"/>
</linearGradient>
</defs>
</svg>
