<svg width="121" height="116" viewBox="0 0 121 116" fill="none" xmlns="http://www.w3.org/2000/svg">
<g clip-path="url(#clip0_14792_43406)">
<path d="M2.46671 56.6138C-0.939871 44.0344 1.11714 34.007 7.19835 27.956C33.0278 2.39515 12.9971 20.0271 36.233 23.1986C61.7088 29.9549 83.9636 100.45 102.85 93.6539C109.718 90.8221 96.0031 104.018 89.6865 110.035C83.5497 115.881 73.5109 117.825 60.9567 114.496C35.4808 107.739 9.29398 81.8248 2.46671 56.6138Z" fill="url(#paint0_linear_14792_43406)"/>
<path opacity="0.6" d="M2.46671 56.6138C-0.939871 44.0344 1.11714 34.007 7.19835 27.956C33.0278 2.39515 12.9971 20.0271 36.233 23.1986C61.7088 29.9549 83.9636 100.45 102.85 93.6539C109.718 90.8221 96.0031 104.018 89.6865 110.035C83.5497 115.881 73.5109 117.825 60.9567 114.496C35.4808 107.739 9.29398 81.8248 2.46671 56.6138Z" fill="url(#paint1_linear_14792_43406)"/>
<rect width="95.4455" height="94.5855" rx="47.2927" transform="matrix(0.966586 0.256342 0.26139 0.965233 1.55078 -0.361816)" fill="url(#paint2_linear_14792_43406)"/>
<rect x="0.613988" y="0.610788" width="80.633" height="79.8975" rx="39.9488" transform="matrix(0.966586 0.256342 0.26139 0.965233 11.02 6.74617)" stroke="#E35760"/>
<path d="M89.686 38.1511C92.3976 35.4723 94.3446 30.9542 95.4615 27.3272C96.5784 23.7002 96.775 19.8567 96.0338 16.1366L86.9326 26.0482C86.7875 26.2062 86.6114 26.3334 86.4151 26.422C86.2188 26.5107 86.0063 26.5589 85.7906 26.5639C85.5749 26.5688 85.3604 26.5304 85.1601 26.4508C84.9599 26.3713 84.778 26.2523 84.6256 26.1012L80.175 21.6969C79.8762 21.4011 79.7083 21 79.7083 20.5818C79.7083 20.1636 79.8762 19.7625 80.175 19.4668L98.9727 0.864558C99.2716 0.568837 99.6769 0.402704 100.099 0.402704C100.522 0.402704 100.927 0.568839 101.226 0.864561L120.036 19.4789C120.335 19.7746 120.503 20.1757 120.503 20.5939C120.503 21.0121 120.335 21.4132 120.036 21.7089L115.59 26.1086C115.438 26.26 115.255 26.3792 115.055 26.4587C114.854 26.5383 114.639 26.5766 114.423 26.5714C114.207 26.5662 113.994 26.5175 113.798 26.4284C113.601 26.3392 113.425 26.2115 113.28 26.0529L105.917 17.995C106.304 22.6949 105.653 27.4218 104.007 31.8473C102.362 36.2728 100.499 41.0499 97.126 44.3811C73.089 68.1682 45.9568 59.7113 33.1383 51.0439C32.9458 50.9127 32.7847 50.7412 32.6666 50.5416C32.5484 50.342 32.4762 50.1191 32.4548 49.8887C32.4335 49.6583 32.4637 49.4261 32.5432 49.2086C32.6227 48.991 32.7496 48.7934 32.9149 48.6298L37.5204 44.0722C37.7746 43.8212 38.1069 43.6625 38.4636 43.6219C38.8203 43.5813 39.1805 43.661 39.4856 43.8483C43.9586 46.5584 45.0458 47.757 48.4797 48.6298C51.9135 49.5026 73.0014 54.6623 89.686 38.1511Z" fill="url(#paint3_linear_14792_43406)"/>
</g>
<defs>
<linearGradient id="paint0_linear_14792_43406" x1="-9.89558" y1="10.9654" x2="112.613" y2="46.7572" gradientUnits="userSpaceOnUse">
<stop stop-color="#E35760"/>
<stop offset="0.845533" stop-color="#262029"/>
</linearGradient>
<linearGradient id="paint1_linear_14792_43406" x1="-55.6801" y1="-43.4051" x2="85.0687" y2="-11.9989" gradientUnits="userSpaceOnUse">
<stop stop-color="#E35760"/>
<stop offset="0.845533" stop-color="#262029"/>
</linearGradient>
<linearGradient id="paint2_linear_14792_43406" x1="0" y1="0" x2="113.858" y2="59.1301" gradientUnits="userSpaceOnUse">
<stop stop-color="#E35760"/>
<stop offset="1" stop-color="#262029"/>
</linearGradient>
<linearGradient id="paint3_linear_14792_43406" x1="95.4091" y1="14.9304" x2="46.5209" y2="48.8223" gradientUnits="userSpaceOnUse">
<stop offset="0.403573" stop-color="#E35760"/>
<stop offset="0.814289" stop-color="#E35760" stop-opacity="0"/>
</linearGradient>
<clipPath id="clip0_14792_43406">
<rect width="121" height="116" fill="white"/>
</clipPath>
</defs>
</svg>
